<svg width="24" height="24" viewBox="0 0 24 24" fill="none" xmlns="http://www.w3.org/2000/svg">
<rect width="24" height="24" rx="2" fill="#00B900"/>
<path d="M12 5C7.92002 5 4.6001 7.67448 4.6001 10.9619C4.6001 13.909 7.23272 16.3772 10.7888 16.8439C11.0299 16.8954 11.3578 17.0016 11.4408 17.2061C11.5154 17.3919 11.4896 17.6829 11.4647 17.8704C11.4647 17.8704 11.3778 18.3889 11.3591 18.4993C11.3269 18.685 11.2104 19.2257 12 18.8953C12.7899 18.5649 16.2618 16.4041 17.8143 14.6299C18.8864 13.4624 19.4001 12.2776 19.4001 10.9619C19.4001 7.67448 16.0806 5 12 5Z" fill="white"/>
<path d="M9.94323 9.3999C9.86438 9.3999 9.80029 9.46606 9.80029 9.54735V12.8525C9.80029 12.9339 9.86438 12.9999 9.94323 12.9999H10.4575C10.5363 12.9999 10.6003 12.9339 10.6003 12.8525V9.54735C10.6003 9.46606 10.5363 9.3999 10.4575 9.3999H9.94323Z" fill="#00B900"/>
<path d="M14.0502 9.3999H13.5088C13.4258 9.3999 13.3585 9.46606 13.3585 9.54735V11.5109L11.8174 9.46548C11.8138 9.46025 11.8098 9.4553 11.8057 9.4505L11.8046 9.44963C11.8017 9.44629 11.7987 9.44338 11.7956 9.44047C11.7947 9.4396 11.7938 9.43887 11.7928 9.438C11.7903 9.43567 11.7876 9.43349 11.7848 9.43146C11.7836 9.43029 11.7823 9.42942 11.781 9.4284C11.7783 9.42666 11.7758 9.42477 11.7731 9.42317C11.7716 9.42215 11.7702 9.42128 11.7685 9.42055C11.7659 9.41895 11.7632 9.41735 11.7605 9.41604C11.7589 9.41532 11.7574 9.41444 11.7558 9.41386C11.753 9.41255 11.7502 9.41124 11.7472 9.41023C11.7454 9.40964 11.744 9.40906 11.7423 9.40848C11.7394 9.40746 11.7364 9.40645 11.7333 9.40572C11.7317 9.40514 11.7299 9.40485 11.7281 9.40426C11.7252 9.40368 11.7224 9.40296 11.7196 9.40237C11.7175 9.40208 11.7153 9.40179 11.7132 9.40165C11.7105 9.40107 11.7079 9.40092 11.7052 9.40063C11.7027 9.40034 11.7002 9.40034 11.6975 9.40019C11.6956 9.40019 11.6941 9.3999 11.6922 9.3999H11.151C11.068 9.3999 11.0005 9.46606 11.0005 9.54735V12.8525C11.0005 12.9339 11.068 12.9999 11.151 12.9999H11.6922C11.7753 12.9999 11.8427 12.9339 11.8427 12.8525V10.8895L13.3857 12.9375C13.3963 12.9524 13.4095 12.9644 13.4239 12.974C13.4243 12.9743 13.4249 12.9747 13.4253 12.9752C13.4285 12.9771 13.4316 12.979 13.4347 12.9807C13.4361 12.9816 13.4375 12.9822 13.439 12.9829C13.4412 12.9842 13.4437 12.9854 13.4461 12.9864C13.4486 12.9874 13.4508 12.9884 13.4535 12.9894C13.4549 12.99 13.4564 12.9906 13.4579 12.991C13.4614 12.9923 13.4647 12.9934 13.4681 12.9944C13.4688 12.9944 13.4696 12.9947 13.4703 12.9948C13.4826 12.998 13.4955 12.9999 13.5088 12.9999H14.0502C14.1333 12.9999 14.2005 12.9339 14.2005 12.8525V9.54735C14.2005 9.46606 14.1333 9.3999 14.0502 9.3999Z" fill="#00B900"/>
<path d="M9.2543 12.1723H7.82096V9.54763C7.82096 9.46606 7.75536 9.3999 7.67463 9.3999H7.14697C7.06609 9.3999 7.00049 9.46606 7.00049 9.54763V12.852V12.8523C7.00049 12.892 7.0162 12.9279 7.04143 12.9544C7.04201 12.9551 7.04259 12.9558 7.04345 12.9566C7.04417 12.9573 7.04489 12.9579 7.04561 12.9586C7.072 12.9842 7.10746 12.9999 7.14682 12.9999H9.2543C9.33518 12.9999 9.40049 12.9336 9.40049 12.852V12.32C9.40049 12.2384 9.33518 12.1723 9.2543 12.1723Z" fill="#00B900"/>
<path d="M16.8539 10.2275C16.9348 10.2275 17.0001 10.1615 17.0001 10.0798V9.54778C17.0001 9.46621 16.9348 9.3999 16.8539 9.3999H14.7466C14.7071 9.3999 14.6712 9.4159 14.6448 9.44163L14.6431 9.44323C14.6422 9.4441 14.6415 9.44498 14.6408 9.44585C14.6157 9.47231 14.6001 9.50808 14.6001 9.54763V12.8522C14.6001 12.8919 14.6158 12.9279 14.641 12.9544L14.6431 12.9566L14.6452 12.9586C14.6715 12.9841 14.7071 12.9999 14.7463 12.9999H16.8539C16.9348 12.9999 17.0001 12.9336 17.0001 12.8522V12.32C17.0001 12.2386 16.9348 12.1723 16.8539 12.1723H15.4207V11.6136H16.8539C16.9348 11.6136 17.0001 11.5475 17.0001 11.4659V10.9339C17.0001 10.8523 16.9348 10.786 16.8539 10.786H15.4207V10.2275H16.8539Z" fill="#00B900"/>
</svg>
