<svg width="20" height="20" viewBox="0 0 20 20" fill="none" xmlns="http://www.w3.org/2000/svg">
<rect width="20" height="20" fill="white"/>
<g clip-path="url(#clip0_1076_271648)">
<path d="M15.859 13.8462V14.0533L16.0054 14.1997L17.9103 16.1045V16.4231H2.5V16.1045L4.40484 14.1997L4.55128 14.0533V13.8462V8.71795C4.55128 5.73335 6.11526 3.35425 8.78194 2.72243L9.16667 2.63127V2.2359V1.53846C9.16667 0.963322 9.62999 0.5 10.2051 0.5C10.7803 0.5 11.2436 0.963322 11.2436 1.53846V2.2359V2.63095L11.6279 2.72234C14.285 3.3541 15.859 5.74405 15.859 8.71795V13.8462ZM11.673 18.4487C11.4633 19.0581 10.8825 19.5 10.2051 19.5C9.52063 19.5 8.94371 19.0588 8.7362 18.4487H11.673Z" stroke="black"/>
</g>
<defs>
<clipPath id="clip0_1076_271648">
<rect width="20" height="20" fill="white"/>
</clipPath>
</defs>
</svg>
