<svg width="16" height="16" viewBox="0 0 16 16" fill="none" xmlns="http://www.w3.org/2000/svg">
<path d="M11.0914 9.85738H10.441L10.2104 9.63509C11.0173 8.69649 11.5031 7.47797 11.5031 6.15241C11.5031 3.19666 9.10718 0.800781 6.15143 0.800781C3.19569 0.800781 0.799805 3.19666 0.799805 6.15241C0.799805 9.10816 3.19569 11.504 6.15143 11.504C7.47699 11.504 8.69552 11.0183 9.63411 10.2114L9.85641 10.4419V11.0924L13.973 15.2008L15.1998 13.974L11.0914 9.85738ZM6.15143 9.85738C4.10135 9.85738 2.44646 8.2025 2.44646 6.15241C2.44646 4.10232 4.10135 2.44744 6.15143 2.44744C8.20152 2.44744 9.85641 4.10232 9.85641 6.15241C9.85641 8.2025 8.20152 9.85738 6.15143 9.85738Z" fill="#616161"/>
</svg>
