<svg width="16" height="16" viewBox="0 0 16 16" fill="none" xmlns="http://www.w3.org/2000/svg">
<path fill-rule="evenodd" clip-rule="evenodd" d="M0 8C0 3.584 3.584 0 8 0C12.416 0 16 3.584 16 8C16 12.416 12.416 16 8 16C3.584 16 0 12.416 0 8ZM1.6 8C1.6 11.528 4.472 14.4 8 14.4C11.528 14.4 14.4 11.528 14.4 8C14.4 4.472 11.528 1.6 8 1.6C4.472 1.6 1.6 4.472 1.6 8ZM7.95593 3.99998C7.50508 3.99998 7.1396 4.36546 7.1396 4.81631C7.1396 5.26715 7.50508 5.63263 7.95593 5.63263C8.40677 5.63263 8.77225 5.26715 8.77225 4.81631C8.77225 4.36546 8.40677 3.99998 7.95593 3.99998ZM6.48654 7.59182H7.46613V10.5306H6.16001V11.8367H10.0784V10.5306H8.77225V6.2857H6.48654V7.59182Z" fill="#1779BA"/>
</svg>
